<svg xmlns="http://www.w3.org/2000/svg" width="16px" height="16px" viewBox="0 0 2048 2048">
	<circle fill-opacity="0.6" r="960" cx="1024" cy="1024" fill="#40b6e0" style="stroke: rgb(0, 136, 255); stroke-width: 128px; stroke-opacity: 1;"></circle>
	<g transform="scale(0.73)"><path fill-opacity="0.8" transform="translate(144.41000000000003, 2190.88) rotate(180) scale(-1, 1)" fill="#000000" d="M616 170l351 1323h209l-437 -1493h-245l-437 1493h209z"></path><path fill-opacity="0.8" transform="translate(1377.41, 2190.88) rotate(180) scale(-1, 1)" fill="#000000" d="M1104 123q-81 -75 -182.5 -113.5t-219.5 -38.5q-284 0 -442 203.5t-158 570.5q0 366 160 570.5t445 204.5q94 0 180 -26.5t166 -80.5v-207q-81 77 -166 113.5t-180 36.5q-197 0 -295.5 -152.5t-98.5 -458.5q0 -311 95.5 -460.5t293.5 -149.5q67 0 117.5 15.5t91.5 48.5 v401h-217v166h410v-643z"></path></g>
</svg>